<mxfile host="app.diagrams.net" agent="Mozilla/5.0 (Windows NT 10.0; Win64; x64) AppleWebKit/537.36 (KHTML, like Gecko) Chrome/135.0.0.0 Safari/537.36" version="26.2.12">
  <diagram name="第 1 页" id="3NHvZ0OaRRjiQGxp-B1W">
    <mxGraphModel dx="579" dy="337" grid="1" gridSize="10" guides="1" tooltips="1" connect="1" arrows="1" fold="1" page="1" pageScale="1" pageWidth="1654" pageHeight="1169" math="0" shadow="0">
      <root>
        <mxCell id="0" />
        <mxCell id="1" parent="0" />
        <mxCell id="GH5J3ZF4ZUbpaNKZtYxY-24" style="edgeStyle=orthogonalEdgeStyle;rounded=0;orthogonalLoop=1;jettySize=auto;html=1;entryX=0.25;entryY=0;entryDx=0;entryDy=0;" edge="1" parent="1" source="GH5J3ZF4ZUbpaNKZtYxY-15" target="GH5J3ZF4ZUbpaNKZtYxY-23">
          <mxGeometry relative="1" as="geometry" />
        </mxCell>
        <mxCell id="GH5J3ZF4ZUbpaNKZtYxY-15" value="&lt;font face=&quot;SimHei&quot;&gt;城市&lt;/font&gt;" style="rounded=1;whiteSpace=wrap;html=1;fillColor=#fff2cc;strokeColor=#d6b656;" vertex="1" parent="1">
          <mxGeometry x="210" y="140" width="60" height="20" as="geometry" />
        </mxCell>
        <mxCell id="GH5J3ZF4ZUbpaNKZtYxY-25" style="edgeStyle=orthogonalEdgeStyle;rounded=0;orthogonalLoop=1;jettySize=auto;html=1;entryX=0.75;entryY=0;entryDx=0;entryDy=0;" edge="1" parent="1" source="GH5J3ZF4ZUbpaNKZtYxY-16" target="GH5J3ZF4ZUbpaNKZtYxY-23">
          <mxGeometry relative="1" as="geometry" />
        </mxCell>
        <mxCell id="GH5J3ZF4ZUbpaNKZtYxY-16" value="&lt;font face=&quot;SimHei&quot;&gt;星期几&lt;/font&gt;" style="rounded=1;whiteSpace=wrap;html=1;fillColor=#d5e8d4;strokeColor=#82b366;" vertex="1" parent="1">
          <mxGeometry x="290" y="140" width="60" height="20" as="geometry" />
        </mxCell>
        <mxCell id="GH5J3ZF4ZUbpaNKZtYxY-26" style="edgeStyle=orthogonalEdgeStyle;rounded=0;orthogonalLoop=1;jettySize=auto;html=1;entryX=0.5;entryY=0;entryDx=0;entryDy=0;" edge="1" parent="1" source="GH5J3ZF4ZUbpaNKZtYxY-23" target="GH5J3ZF4ZUbpaNKZtYxY-1">
          <mxGeometry relative="1" as="geometry" />
        </mxCell>
        <mxCell id="GH5J3ZF4ZUbpaNKZtYxY-23" value="&lt;font face=&quot;Times New Roman&quot;&gt;prompt&lt;/font&gt;" style="rounded=1;whiteSpace=wrap;html=1;fillColor=#e1d5e7;strokeColor=#9673a6;" vertex="1" parent="1">
          <mxGeometry x="200" y="180" width="160" height="20" as="geometry" />
        </mxCell>
        <mxCell id="GH5J3ZF4ZUbpaNKZtYxY-27" value="" style="group" vertex="1" connectable="0" parent="1">
          <mxGeometry x="200" y="220" width="160" height="70" as="geometry" />
        </mxCell>
        <mxCell id="GH5J3ZF4ZUbpaNKZtYxY-1" value="" style="rounded=1;whiteSpace=wrap;html=1;fillColor=#dae8fc;strokeColor=#6c8ebf;" vertex="1" parent="GH5J3ZF4ZUbpaNKZtYxY-27">
          <mxGeometry width="160" height="70" as="geometry" />
        </mxCell>
        <mxCell id="GH5J3ZF4ZUbpaNKZtYxY-12" value="大语言模型&lt;div&gt;总结器&lt;/div&gt;" style="text;html=1;align=center;verticalAlign=middle;whiteSpace=wrap;rounded=0;fontFamily=SimHei;" vertex="1" parent="GH5J3ZF4ZUbpaNKZtYxY-27">
          <mxGeometry x="70" y="20" width="90" height="30" as="geometry" />
        </mxCell>
        <mxCell id="GH5J3ZF4ZUbpaNKZtYxY-13" value="" style="group" vertex="1" connectable="0" parent="GH5J3ZF4ZUbpaNKZtYxY-27">
          <mxGeometry x="20" y="10.509999999999934" width="38" height="48.98000000000002" as="geometry" />
        </mxCell>
        <mxCell id="GH5J3ZF4ZUbpaNKZtYxY-2" value="" style="shape=image;verticalLabelPosition=bottom;labelBackgroundColor=default;verticalAlign=top;aspect=fixed;imageAspect=0;editableCssRules=.*;image=data:image/svg+xml,PHN2ZyB4bWxuczp4bGluaz0iaHR0cDovL3d3dy53My5vcmcvMTk5OS94bGluayIgeG1sbnM9Imh0dHA6Ly93d3cudzMub3JnLzIwMDAvc3ZnIiBoZWlnaHQ9IjE4NS45MjgyOTcwNDI4NDY2OCIgd2lkdGg9IjE0MS4yMzU1MTg0NTU1MDUzNyIgdmVyc2lvbj0iMS4xIiB2aWV3Qm94PSIxNDkuNjY0NzQ5MTQ1NTA3OCA3Mi4wNDcxMzQzOTk0MTQwNiA3MjMuMTI1ODU0NDkyMTg3NSA5NTEuOTUyODgwODU5Mzc1IiBjbGFzcz0iaWNvbiI+PHBhdGggZmlsbD0iIzAwMDAwMCIgZD0iTTI4Ny44OTc2IDc5LjYxNmMtNDIuMzkzNiAyNS42LTY4Ljc2MTYgMTE3Ljk2NDgtNTkuMTg3MiAyMDUuNTY4bDMuNTg0IDM0LjgxNi0xOS45NjggMTkuOTY4Yy02NC44MTkyIDY0LTgxLjIwMzIgMTYzLjIyNTYtNDAuNDQ4IDI0My4ybDEwLjg1NDQgMjEuMjQ4LTEwLjAzNTIgMjQuNzgwOGMtMjUuOTU4NCA2NS4yMjg4LTIzLjk2MTYgMTQ0LjAyNTYgNC40MDMyIDIwMC44MDY0bDExLjYyMjQgMjIuNzg0LTcuMTY4IDE0Ljg0OGMtMTYuNDM1MiAzMy41ODcyLTI0LjQyMjQgMTA3LjUyLTE0Ljg0OCAxNDEuMTU4NGwzLjk5MzYgMTUuMjA2NGg2MC40MTZsLTMuMTc0NC0xMy4yMDk2Yy0yLjA0OC02LjgwOTYtMy41ODQtMzAuNzcxMi0zLjU4NC01Mi43ODcyIDAtMzcuOTkwNCAwLjc2OC00MS42MjU2IDE1LjE1NTItNzEuNTc3NiA3Ljk4NzItMTcuMjAzMiAxNC44NDgtMzQuNDA2NCAxNC44NDgtMzguMDQxNiAwLTMuNTg0LTUuNjMyLTE1LjU2NDgtMTIuOC0yNi43Nzc2LTM1LjYzNTItNTUuNjAzMi0zNi40NTQ0LTEyMy41OTY4LTIuODE2LTE5MC40MTI4IDE0Ljc5NjgtMjkuNTkzNiAxNC4zMzYtMzguODA5Ni0yLjA0OC01OC43Nzc2LTIyLjM3NDQtMjYuNDE5Mi0zMy4xNzc2LTY5LjIyMjQtMjYuMzY4LTEwNC40NDggOS41NzQ0LTUwLjM4MDggNDAuMzk2OC05Mi43NzQ0IDgxLjk3MTItMTEyLjM4NCAyMC4wMTkyLTkuNTc0NCAyOS4xODQtMTEuNTcxMiA1NC43ODQtMTEuNTcxMmgzMS4yMzJsNy45ODcyLTE2LjAyNTZjMTguNDMyLTM2LjM1MiA1MC40MzItNjEuNTkzNiA5My41OTM2LTczLjk4NCA1NS42MDMyLTE2LjM4NCAxMjQuNDE2IDE0Ljc5NjggMTU0LjgyODggNzAuNGw5LjU3NDQgMTcuNjEyOCAzNC4wNDggMS45OTY4YzU3Ljk1ODQgMy45OTM2IDkzLjE4NCAyNy4xODcyIDExOC4zNzQ0IDc3Ljk3NzYgMjUuNiA1Mi4wMTkyIDIyLjQyNTYgMTA3LjIxMjgtOC4zOTY4IDE0Ny42MDk2LTE3LjIwMzIgMjIuNDI1Ni0xNy4yMDMyIDMyLTIuNDA2NCA2MS41OTM2IDMzLjU4NzIgNjYuODE2IDMyLjc2OCAxMzQuODA5Ni0yLjgxNiAxOTAuNDEyOC03LjE2OCAxMS4yMTI4LTEyLjggMjMuMTkzNi0xMi44IDI2Ljc3NzZzNi44MDk2IDIwLjgzODQgMTQuODQ4IDM3Ljk5MDRjMTQuMzM2IDMwLjAwMzIgMTUuMTU1MiAzMy42Mzg0IDE1LjE1NTIgNzEuNjI4OCAwIDIyLjAxNi0xLjU4NzIgNDUuOTc3Ni0zLjU4NCA1Mi43ODcybC0zLjIyNTYgMTMuMjA5Nmg2MC40MTZsMy45OTM2LTE0Ljg0OGM5LjYyNTYtMzMuOTQ1NiAxLjYzODQtMTA3LjkyOTYtMTQuNzk2OC0xNDEuNTY4bC03LjE2OC0xNC43OTY4IDExLjU3MTItMjIuNzg0YzI4LjQxNi01Ni44MzIgMzAuNDEyOC0xMzUuNTc3NiAzLjk5MzYtMjAxLjYyNTZsLTkuOTg0LTI1LjE5MDQgMTAuNzUyLTIyLjAxNmMyNC4wNjQtNDkuNTYxNiAyNy4yMzg0LTEwOC43NDg4IDguMDM4NC0xNjQuNzYxNi0xMC43NTItMzItMjUuMTkwNC01NC43ODQtNTAuNzkwNC03OS4yMDY0bC0xNy4yMDMyLTE3LjIwMzIgMy41ODQtMzQuODE2YzcuMjE5Mi02NS45OTY4LTguNzU1Mi0xNDguMzc3Ni0zNS41ODQtMTgzLjYwMzItMjEuMTk2OC0yNy45NTUyLTQ5LjYxMjgtMzYuMzUyLTc5LjIwNjQtMjMuOTYxNi0yNy4xODcyIDExLjE2MTYtNTAuNzkwNCA1MS41NTg0LTYxLjk1MiAxMDYuMzkzNi01LjIyMjQgMjYuMDA5Ni04LjAzODQgMzEuNTkwNC0xMi44IDI5LjU5MzYtMzQuMDQ4LTE1LjYxNi02MC40MTYtMjEuNjA2NC05NC44MjI0LTIxLjYwNjQtMzUuMjI1NiAwLTUzLjI0OCA0LjQwMzItOTMuMTg0IDIxLjYwNjQtNC44MTI4IDEuOTk2OC03LjY4LTMuNTg0LTEyLjgtMjkuNTkzNi0xMS4yNjQtNTQuNzg0LTM0LjgxNi05NS4yMzItNjIuMDU0NC0xMDYuMzkzNi0xOC4zODA4LTguMDM4NC00MS4xNjQ4LTYuODA5Ni01NS42MDMyIDEuOTk2OHogbTQ1LjYxOTIgNzMuNTc0NGMxNi4wMjU2IDMyLjc2OCAyNy4xODcyIDExMC43OTY4IDE3LjYxMjggMTI1LjIzNTItMS41ODcyIDIuMzU1Mi0xMy42MTkyIDUuNTgwOC0yNi44Mjg4IDcuMTY4LTEzLjE1ODQgMS41ODcyLTI3LjEzNiAzLjU4NC0zMC43NzEyIDQuODEyOC02LjQgMS45OTY4LTcuMTY4LTEuNTg3Mi03LjE2OC0zNy4yMjI0IDAtMjEuNjA2NCAyLjc2NDgtNTAuMzgwOCA1LjkzOTItNjQuNDA5NiA3LjIxOTItMjkuOTUyIDIwLjgzODQtNTcuOTU4NCAyNy4yMzg0LTU1LjU1MiAyLjQwNjQgMC43NjggOC44MDY0IDkuOTg0IDEzLjk3NzYgMTkuOTY4eiBtMzg0LjgxOTItNS4xNzEyYzEyLjggMjQuNzgwOCAxOS45NjggNjIuNzcxMiAxOS45NjggMTA1LjU3NDQgMCAzMC44MjI0LTEuMTc3NiAzOC44MDk2LTUuMTcxMiAzNy4yMjI0LTMuMjI1Ni0xLjIyODgtMTcuNjEyOC0zLjIyNTYtMzItNC44MTI4LTMyLTMuNTg0LTMzLjIyODgtNS42MzItMjkuNTkzNi01NC4wMTYgMy41ODQtNDMuMTYxNiAyMy4xOTM2LTk5Ljk5MzYgMzUuMTc0NC05OS45OTM2IDIuMDQ4IDAgNy4xNjggNy4xNjggMTEuNjIyNCAxNi4wMjU2eiIvPjxwYXRoIGZpbGw9IiMwMDAwMDAiIGQ9Ik00NTMuNTI5NiA0NzkuNTkwNGMtNDQuOCAxOC4wMjI0LTc1LjIxMjggNDcuNjE2LTg1LjYwNjQgODMuNjA5Ni0xNS42MTYgNTQuMDE2IDguMzk2OCAxMDEuMjIyNCA2NC40MDk2IDEyNy41OTA0IDIyLjc4NCAxMC4zOTM2IDI3LjE4NzIgMTEuMjEyOCA3OS45NzQ0IDExLjIxMjggNTIuNzg3MiAwIDU3LjE5MDQtMC44MTkyIDgwLjAyNTYtMTEuMjEyOCA0MS4xNjQ4LTE5LjIgNjQtNDcuOTc0NCA2OC43NjE2LTg2LjM3NDQgNS4yMjI0LTQ2LjQzODQtMjMuOTYxNi05Mi40MTYtNzMuOTg0LTExNy4yNDgtMjQuMzcxMi0xMi4zOTA0LTMwLjAwMzItMTMuMTU4NC03MC44MDk2LTEzLjk3NzYtMzUuMTc0NC0wLjc2OC00Ny42MTYgMC40MDk2LTYyLjc3MTIgNi40eiBtMTAxLjk5MDQgMzguODA5NmM5Ljk4NCAzLjIyNTYgMjYuNDE5MiAxMy4yMDk2IDM2LjQwMzIgMjIuMDE2IDM1LjIyNTYgMzEuMjMyIDM3Ljk5MDQgNjguNDAzMiA2LjgwOTYgOTYuNzY4LTIxLjYwNjQgMTkuNjA5Ni00MC4wMzg0IDI0LjgzMi04Ni40MjU2IDI0LjgzMi00Ni4zODcyIDAtNjQuNzY4LTUuMjIyNC04Ni4zNzQ0LTI0LjgzMi0zMS4yMzItMjguMzY0OC0yOC40MTYtNjUuNTM2IDYuODA5Ni05Ni43NjggOS45ODQtOC44MDY0IDI1LjYtMTguNDMyIDM0LjgxNi0yMi4wMTYgMjIuMzc0NC03LjU3NzYgNjUuMTc3Ni03Ljk4NzIgODcuOTYxNiAweiIvPjxwYXRoIGZpbGw9IiMwMDAwMDAiIGQ9Ik00ODAuNzY4IDU1OC43OTY4Yy01LjYzMiA1LjYzMi0yLjA0OCAyNS4xOTA0IDUuMTIgMzAuMDAzMiA0LjgxMjggMy41ODQgOC40NDggMTEuMjEyOCA5LjIxNiAyMS4xOTY4IDEuMjI4OCAxNS42MTYgMS42Mzg0IDE2LjAyNTYgMTcuMjAzMiAxNi4wMjU2IDE1LjYxNiAwIDE2LjAyNTYtMC40MDk2IDE2LjM4NC0xNS4yMDY0IDAtMTAuMDM1MiAzLjIyNTYtMTcuNjEyOCA4LjgwNjQtMjIuODM1MiA5LjYyNTYtOS4yMTYgMTEuNjIyNC0yMC43ODcyIDQuMDQ0OC0yNi43Nzc2LTUuNjMyLTQuNDAzMi01Ni44MzItNS45OTA0LTYwLjgyNTYtMi40MDY0ek0zMTEuODU5MiA0ODAuNDA5NmMtMTguNDMyIDkuMjE2LTI4LjAwNjQgNDQuOC0xNi4zODQgNjAuMDA2NCA3LjE2OCA5LjIxNiAyMC43ODcyIDE1LjU2NDggMzMuOTk2OCAxNS41NjQ4IDE3LjIwMzIgMCAzNi44MTI4LTIzLjE5MzYgMzYuODEyOC00My4xNjE2IDAtOC4wMzg0LTIuNDA2NC0xNy42MTI4LTUuMjIyNC0yMS4xOTY4YTQwLjk2IDQwLjk2IDAgMCAwLTQ5LjE1Mi0xMS4yNjR6IG0zNjQuMzkwNCAwLjQwOTZjLTEyLjggNy4xNjgtMTcuNTYxNiAxNS45NzQ0LTE3Ljk3MTIgMzIgMCAxOS45NjggMTkuNjA5NiA0My4xNjE2IDM2LjgxMjggNDMuMTYxNiAyMy4xOTM2IDAgMzguNzU4NC0xMy45Nzc2IDM5LjE2OC0zNS4xNzQ0IDAtMzIuNzY4LTMyLTU0Ljc4NC01OC4wMDk2LTM5Ljk4NzJ6Ii8+PC9zdmc+;container=0;" vertex="1" parent="GH5J3ZF4ZUbpaNKZtYxY-13">
          <mxGeometry width="28.08" height="37.04" as="geometry" />
        </mxCell>
        <mxCell id="GH5J3ZF4ZUbpaNKZtYxY-3" value="" style="shape=image;verticalLabelPosition=bottom;labelBackgroundColor=default;verticalAlign=top;aspect=fixed;imageAspect=0;editableCssRules=.*;image=data:image/svg+xml,PHN2ZyB4bWxuczp4bGluaz0iaHR0cDovL3d3dy53My5vcmcvMTk5OS94bGluayIgeG1sbnM9Imh0dHA6Ly93d3cudzMub3JnLzIwMDAvc3ZnIiBoZWlnaHQ9IjIwMCIgd2lkdGg9IjE3NS41MjY5MDUwNTk4MTQ0NSIgdmVyc2lvbj0iMS4xIiB2aWV3Qm94PSI2Mi42NTA5OTcxNjE4NjUyMzQgMCA4OTguNjk3NzUzOTA2MjUgMTAyNCIgY2xhc3M9Imljb24iPjxwYXRoIGZpbGw9IiMxMjk2REIiIGQ9Ik01MTEuNjIgMTAyNGEzMy41NzYgMzMuNTc2IDAgMCAxLTMzLjU0OS0zMy41NXYtOTguODQybC02OS4wMzkgNDIuNDk2YTMzLjk1NCAzMy45NTQgMCAwIDEtNDYuNTEtMTAuNzhsLTAuMzUxLTAuNTM4YTMzLjkyNyAzMy45MjcgMCAwIDEgMTEuMDc1LTQ2LjYybDEwMi4xMDQtNjIuODRhNDQuNTE4IDQ0LjUxOCAwIDAgMSAyLjY5NC0xLjQ4M1Y1NzEuNDQ2bC0xOTcuMTIgMTE5LjA1M2EzNC40MTIgMzQuNDEyIDAgMCAxIDAgNi4wMWwtMTAuMTMyIDExOS41MzhhMzQuMjIzIDM0LjIyMyAwIDAgMS0zMy44MTkgMzEuMDQ0aC0zLjI2YTM0LjA2MSAzNC4wNjEgMCAwIDEtMzAuOTM2LTM2LjY0OWw2LjQ5NC03Ni44LTk1LjQyIDU3LjU2YTM0LjE3IDM0LjE3IDAgMCAxLTE3LjY1IDQuOTA0IDMzLjM4OCAzMy4zODggMCAwIDEtMzMuNTUtMjkuNTM0di03LjU0NWEzMy4wOTEgMzMuMDkxIDAgMCAxIDE1Ljg5OS0yNC43MTFsODQuNjY4LTUxLjItNTMuODk0LTE5LjQwMmEzMy45MjcgMzMuOTI3IDAgMCAxLTIwLjM0Ni00My4zMzIgMzQuMDA4IDM0LjAwOCAwIDAgMSAzMS45ODctMjIuNTU1IDMzLjU3NiAzMy41NzYgMCAwIDEgMTEuMzk5IDEuOTY4bDEwNS45ODQgMzguMTAzIDIxMS4yOTQtMTI3LjUxNS0yMDQuOC0xMzguMTA1YTMyLjMzNyAzMi4zMzcgMCAwIDEtNC42ODkgMi40NTJsLTExMC41NjUgNDYuMTA3YTMzLjk1NCAzMy45NTQgMCAwIDEtNDQuMjc0LTE4LjEzNmwtMC4xOS0wLjQ1OC0wLjEzNC0wLjQwNGEzNC4wNjEgMzQuMDYxIDAgMCAxIDE4LjMyNC00My44MTZsNzQuNDAyLTMxLjA5OC04Ni45ODYtNTguNjlhMzMuMTE4IDMzLjExOCAwIDAgMS04Ljc4NS00Ni40NTggMzQuMjIzIDM0LjIyMyAwIDAgMSA0Ni44MzUtOC42MjNsODUuOTM1IDU3LjkzNyA0LjQyLTc4LjkwMmEzMy44NzMgMzMuODczIDAgMCAxIDMzLjg3Mi0zMS45NmgyLjI5YTMzLjkgMzMuOSAwIDAgMSAzMS45MzMgMzUuNzMybC02LjcxIDExOS41MTJMNDc4LjA3MSA0NDguN1YyMjIuMzQzbC05MS45MTctNzQuMTMyYTM0LjA2MSAzNC4wNjEgMCAwIDEtNS4zOS00Ny4yMTJsMC4yNy0wLjM3OCAwLjI5Ni0wLjM3N2EzMy42ODQgMzMuNjg0IDAgMCAxIDI2LjI0Ny0xMi41ODQgMzQuMDYxIDM0LjA2MSAwIDAgMSAyMS4yMDggNy40MWw0OS4yODYgMzkuNjY3VjMzLjQ0MkEzMy44NzMgMzMuODczIDAgMCAxIDUwOC4zNjEgMGg3LjAwNmEzMy44NzMgMzMuODczIDAgMCAxIDMwLjI4OCAzMy4zODh2OTYuNzE0bDQxLjIzLTM1Ljc4NmEzMy41NzYgMzMuNTc2IDAgMCAxIDIyLjA5Ny04LjIyIDMzLjk4IDMzLjk4IDAgMCAxIDI1LjY4IDExLjY3bDAuNDU5IDAuNTExIDAuMjQyIDAuNDA0YTMzLjQxNSAzMy40MTUgMCAwIDEgNy42OCAyNC4wMzcgMzMuOTI3IDMzLjkyNyAwIDAgMS0xMS41ODcgMjMuMTc1bC04NS44MjggNzQuNDAydjIzMi4xNTFsMTk3LjA5NC0xMTguOTcyIDAuNjczLTExNy4wNmEzNC4xMTUgMzQuMTE1IDAgMCAxIDM0LjAwOC0zMy43MzhoMC40M2EzNC4xMTUgMzQuMTE1IDAgMCAxIDMzLjc5MyAzNC4wMDhsLTAuNDMxIDc1LjQ1MiA5OC43MDgtNTkuNTUzYTM0LjAzNSAzNC4wMzUgMCAwIDEgNDYuMzc2IDEwLjk0IDMyLjcxNCAzMi43MTQgMCAwIDEgNC4xNSAyNS4xOTYgMzMuMTcyIDMzLjE3MiAwIDAgMS0xNS4yNzkgMjAuODU3bC0xMDEuNzI2IDYxLjM4NyA3NS40NTIgMzcuMTA2YTMzLjkgMzMuOSAwIDAgMSAxNS4zODcgNDUuMzUybC0wLjMyMyAwLjYyLTAuMjQyIDAuNDA0YTMzLjczOCAzMy43MzggMCAwIDEtMzAuMDc0IDE4LjI3IDMzLjM4OCAzMy4zODggMCAwIDEtMTQuOTI5LTMuNTAybC0xMDcuNTQ3LTUzLjA4N2EzMy43MTEgMzMuNzExIDAgMCAxLTYuMTctMy45MzRsLTIwMC44NCAxMjEuMjYzIDIxMy42OTMgMTQ0LjA2IDEuMDI0LTAuNDAzTDkwMS4yIDYxNS4yMDhhMzMuOSAzMy45IDAgMCAxIDQzLjQ5MyAxOS44ODhsMC4yMTYgMC41OTJhMzMuOTI3IDMzLjkyNyAwIDAgMS0xOS45NDEgNDMuMzg2TDg1Ny4xNCA3MDQuMzVsNzUuOTY1IDUxLjJhMzMuMzg4IDMzLjM4OCAwIDAgMSAxNC4xNDcgMjEuNzIgMzIuODc2IDMyLjg3NiAwIDAgMS01LjM5IDI0Ljg3MiAzNC4xNyAzNC4xNyAwIDAgMS00Ni44MDcgOC42MjNsLTgzLjg4Ny01Ni41ODktOC4yMiA4Ni4yMzJhMzMuNzM4IDMzLjczOCAwIDAgMS0zMy42MyAzMC42MTJoLTMuODUzYTMzLjkyNyAzMy45MjcgMCAwIDEtMzAuNDIzLTM2LjkxOGwxMS4zNzEtMTE5LjM3N2MwLjEzNS0xLjE4NiAwLjI5Ny0yLjM3MSAwLjU0LTMuNTNMNTQ1LjY1NCA1NzUuMzh2MjM3LjY1bDEwMC45NzIgNjQuMjk1YTMzLjk4IDMzLjk4IDAgMCAxIDEwLjQyOSA0Ni43NTRsLTAuMzc3IDAuNTY2YTM0LjAzNSAzNC4wMzUgMCAwIDEtNDYuNjQ2IDEwLjI0bC02NC4zNzgtNDAuOTg3djk2LjcxNEEzMy42NTcgMzMuNjU3IDAgMCAxIDUxMi4wOCAxMDI0eiIvPjwvc3ZnPg==;container=0;" vertex="1" parent="GH5J3ZF4ZUbpaNKZtYxY-13">
          <mxGeometry x="20" y="28.52000000000004" width="18" height="20.46" as="geometry" />
        </mxCell>
        <mxCell id="GH5J3ZF4ZUbpaNKZtYxY-28" value="" style="group" vertex="1" connectable="0" parent="1">
          <mxGeometry x="200" y="400" width="165" height="70" as="geometry" />
        </mxCell>
        <mxCell id="GH5J3ZF4ZUbpaNKZtYxY-18" value="" style="rounded=1;whiteSpace=wrap;html=1;fillColor=#f8cecc;strokeColor=#b85450;" vertex="1" parent="GH5J3ZF4ZUbpaNKZtYxY-28">
          <mxGeometry width="160" height="70" as="geometry" />
        </mxCell>
        <mxCell id="GH5J3ZF4ZUbpaNKZtYxY-11" value="" style="group" vertex="1" connectable="0" parent="GH5J3ZF4ZUbpaNKZtYxY-28">
          <mxGeometry x="20" y="10.509999999999934" width="67.04000000000002" height="48.980000000000075" as="geometry" />
        </mxCell>
        <mxCell id="GH5J3ZF4ZUbpaNKZtYxY-6" value="" style="group" vertex="1" connectable="0" parent="GH5J3ZF4ZUbpaNKZtYxY-11">
          <mxGeometry width="38" height="48.98000000000002" as="geometry" />
        </mxCell>
        <mxCell id="GH5J3ZF4ZUbpaNKZtYxY-7" value="" style="shape=image;verticalLabelPosition=bottom;labelBackgroundColor=default;verticalAlign=top;aspect=fixed;imageAspect=0;editableCssRules=.*;image=data:image/svg+xml,PHN2ZyB4bWxuczp4bGluaz0iaHR0cDovL3d3dy53My5vcmcvMTk5OS94bGluayIgeG1sbnM9Imh0dHA6Ly93d3cudzMub3JnLzIwMDAvc3ZnIiBoZWlnaHQ9IjE4NS45MjgyOTcwNDI4NDY2OCIgd2lkdGg9IjE0MS4yMzU1MTg0NTU1MDUzNyIgdmVyc2lvbj0iMS4xIiB2aWV3Qm94PSIxNDkuNjY0NzQ5MTQ1NTA3OCA3Mi4wNDcxMzQzOTk0MTQwNiA3MjMuMTI1ODU0NDkyMTg3NSA5NTEuOTUyODgwODU5Mzc1IiBjbGFzcz0iaWNvbiI+PHBhdGggZmlsbD0iIzAwMDAwMCIgZD0iTTI4Ny44OTc2IDc5LjYxNmMtNDIuMzkzNiAyNS42LTY4Ljc2MTYgMTE3Ljk2NDgtNTkuMTg3MiAyMDUuNTY4bDMuNTg0IDM0LjgxNi0xOS45NjggMTkuOTY4Yy02NC44MTkyIDY0LTgxLjIwMzIgMTYzLjIyNTYtNDAuNDQ4IDI0My4ybDEwLjg1NDQgMjEuMjQ4LTEwLjAzNTIgMjQuNzgwOGMtMjUuOTU4NCA2NS4yMjg4LTIzLjk2MTYgMTQ0LjAyNTYgNC40MDMyIDIwMC44MDY0bDExLjYyMjQgMjIuNzg0LTcuMTY4IDE0Ljg0OGMtMTYuNDM1MiAzMy41ODcyLTI0LjQyMjQgMTA3LjUyLTE0Ljg0OCAxNDEuMTU4NGwzLjk5MzYgMTUuMjA2NGg2MC40MTZsLTMuMTc0NC0xMy4yMDk2Yy0yLjA0OC02LjgwOTYtMy41ODQtMzAuNzcxMi0zLjU4NC01Mi43ODcyIDAtMzcuOTkwNCAwLjc2OC00MS42MjU2IDE1LjE1NTItNzEuNTc3NiA3Ljk4NzItMTcuMjAzMiAxNC44NDgtMzQuNDA2NCAxNC44NDgtMzguMDQxNiAwLTMuNTg0LTUuNjMyLTE1LjU2NDgtMTIuOC0yNi43Nzc2LTM1LjYzNTItNTUuNjAzMi0zNi40NTQ0LTEyMy41OTY4LTIuODE2LTE5MC40MTI4IDE0Ljc5NjgtMjkuNTkzNiAxNC4zMzYtMzguODA5Ni0yLjA0OC01OC43Nzc2LTIyLjM3NDQtMjYuNDE5Mi0zMy4xNzc2LTY5LjIyMjQtMjYuMzY4LTEwNC40NDggOS41NzQ0LTUwLjM4MDggNDAuMzk2OC05Mi43NzQ0IDgxLjk3MTItMTEyLjM4NCAyMC4wMTkyLTkuNTc0NCAyOS4xODQtMTEuNTcxMiA1NC43ODQtMTEuNTcxMmgzMS4yMzJsNy45ODcyLTE2LjAyNTZjMTguNDMyLTM2LjM1MiA1MC40MzItNjEuNTkzNiA5My41OTM2LTczLjk4NCA1NS42MDMyLTE2LjM4NCAxMjQuNDE2IDE0Ljc5NjggMTU0LjgyODggNzAuNGw5LjU3NDQgMTcuNjEyOCAzNC4wNDggMS45OTY4YzU3Ljk1ODQgMy45OTM2IDkzLjE4NCAyNy4xODcyIDExOC4zNzQ0IDc3Ljk3NzYgMjUuNiA1Mi4wMTkyIDIyLjQyNTYgMTA3LjIxMjgtOC4zOTY4IDE0Ny42MDk2LTE3LjIwMzIgMjIuNDI1Ni0xNy4yMDMyIDMyLTIuNDA2NCA2MS41OTM2IDMzLjU4NzIgNjYuODE2IDMyLjc2OCAxMzQuODA5Ni0yLjgxNiAxOTAuNDEyOC03LjE2OCAxMS4yMTI4LTEyLjggMjMuMTkzNi0xMi44IDI2Ljc3NzZzNi44MDk2IDIwLjgzODQgMTQuODQ4IDM3Ljk5MDRjMTQuMzM2IDMwLjAwMzIgMTUuMTU1MiAzMy42Mzg0IDE1LjE1NTIgNzEuNjI4OCAwIDIyLjAxNi0xLjU4NzIgNDUuOTc3Ni0zLjU4NCA1Mi43ODcybC0zLjIyNTYgMTMuMjA5Nmg2MC40MTZsMy45OTM2LTE0Ljg0OGM5LjYyNTYtMzMuOTQ1NiAxLjYzODQtMTA3LjkyOTYtMTQuNzk2OC0xNDEuNTY4bC03LjE2OC0xNC43OTY4IDExLjU3MTItMjIuNzg0YzI4LjQxNi01Ni44MzIgMzAuNDEyOC0xMzUuNTc3NiAzLjk5MzYtMjAxLjYyNTZsLTkuOTg0LTI1LjE5MDQgMTAuNzUyLTIyLjAxNmMyNC4wNjQtNDkuNTYxNiAyNy4yMzg0LTEwOC43NDg4IDguMDM4NC0xNjQuNzYxNi0xMC43NTItMzItMjUuMTkwNC01NC43ODQtNTAuNzkwNC03OS4yMDY0bC0xNy4yMDMyLTE3LjIwMzIgMy41ODQtMzQuODE2YzcuMjE5Mi02NS45OTY4LTguNzU1Mi0xNDguMzc3Ni0zNS41ODQtMTgzLjYwMzItMjEuMTk2OC0yNy45NTUyLTQ5LjYxMjgtMzYuMzUyLTc5LjIwNjQtMjMuOTYxNi0yNy4xODcyIDExLjE2MTYtNTAuNzkwNCA1MS41NTg0LTYxLjk1MiAxMDYuMzkzNi01LjIyMjQgMjYuMDA5Ni04LjAzODQgMzEuNTkwNC0xMi44IDI5LjU5MzYtMzQuMDQ4LTE1LjYxNi02MC40MTYtMjEuNjA2NC05NC44MjI0LTIxLjYwNjQtMzUuMjI1NiAwLTUzLjI0OCA0LjQwMzItOTMuMTg0IDIxLjYwNjQtNC44MTI4IDEuOTk2OC03LjY4LTMuNTg0LTEyLjgtMjkuNTkzNi0xMS4yNjQtNTQuNzg0LTM0LjgxNi05NS4yMzItNjIuMDU0NC0xMDYuMzkzNi0xOC4zODA4LTguMDM4NC00MS4xNjQ4LTYuODA5Ni01NS42MDMyIDEuOTk2OHogbTQ1LjYxOTIgNzMuNTc0NGMxNi4wMjU2IDMyLjc2OCAyNy4xODcyIDExMC43OTY4IDE3LjYxMjggMTI1LjIzNTItMS41ODcyIDIuMzU1Mi0xMy42MTkyIDUuNTgwOC0yNi44Mjg4IDcuMTY4LTEzLjE1ODQgMS41ODcyLTI3LjEzNiAzLjU4NC0zMC43NzEyIDQuODEyOC02LjQgMS45OTY4LTcuMTY4LTEuNTg3Mi03LjE2OC0zNy4yMjI0IDAtMjEuNjA2NCAyLjc2NDgtNTAuMzgwOCA1LjkzOTItNjQuNDA5NiA3LjIxOTItMjkuOTUyIDIwLjgzODQtNTcuOTU4NCAyNy4yMzg0LTU1LjU1MiAyLjQwNjQgMC43NjggOC44MDY0IDkuOTg0IDEzLjk3NzYgMTkuOTY4eiBtMzg0LjgxOTItNS4xNzEyYzEyLjggMjQuNzgwOCAxOS45NjggNjIuNzcxMiAxOS45NjggMTA1LjU3NDQgMCAzMC44MjI0LTEuMTc3NiAzOC44MDk2LTUuMTcxMiAzNy4yMjI0LTMuMjI1Ni0xLjIyODgtMTcuNjEyOC0zLjIyNTYtMzItNC44MTI4LTMyLTMuNTg0LTMzLjIyODgtNS42MzItMjkuNTkzNi01NC4wMTYgMy41ODQtNDMuMTYxNiAyMy4xOTM2LTk5Ljk5MzYgMzUuMTc0NC05OS45OTM2IDIuMDQ4IDAgNy4xNjggNy4xNjggMTEuNjIyNCAxNi4wMjU2eiIvPjxwYXRoIGZpbGw9IiMwMDAwMDAiIGQ9Ik00NTMuNTI5NiA0NzkuNTkwNGMtNDQuOCAxOC4wMjI0LTc1LjIxMjggNDcuNjE2LTg1LjYwNjQgODMuNjA5Ni0xNS42MTYgNTQuMDE2IDguMzk2OCAxMDEuMjIyNCA2NC40MDk2IDEyNy41OTA0IDIyLjc4NCAxMC4zOTM2IDI3LjE4NzIgMTEuMjEyOCA3OS45NzQ0IDExLjIxMjggNTIuNzg3MiAwIDU3LjE5MDQtMC44MTkyIDgwLjAyNTYtMTEuMjEyOCA0MS4xNjQ4LTE5LjIgNjQtNDcuOTc0NCA2OC43NjE2LTg2LjM3NDQgNS4yMjI0LTQ2LjQzODQtMjMuOTYxNi05Mi40MTYtNzMuOTg0LTExNy4yNDgtMjQuMzcxMi0xMi4zOTA0LTMwLjAwMzItMTMuMTU4NC03MC44MDk2LTEzLjk3NzYtMzUuMTc0NC0wLjc2OC00Ny42MTYgMC40MDk2LTYyLjc3MTIgNi40eiBtMTAxLjk5MDQgMzguODA5NmM5Ljk4NCAzLjIyNTYgMjYuNDE5MiAxMy4yMDk2IDM2LjQwMzIgMjIuMDE2IDM1LjIyNTYgMzEuMjMyIDM3Ljk5MDQgNjguNDAzMiA2LjgwOTYgOTYuNzY4LTIxLjYwNjQgMTkuNjA5Ni00MC4wMzg0IDI0LjgzMi04Ni40MjU2IDI0LjgzMi00Ni4zODcyIDAtNjQuNzY4LTUuMjIyNC04Ni4zNzQ0LTI0LjgzMi0zMS4yMzItMjguMzY0OC0yOC40MTYtNjUuNTM2IDYuODA5Ni05Ni43NjggOS45ODQtOC44MDY0IDI1LjYtMTguNDMyIDM0LjgxNi0yMi4wMTYgMjIuMzc0NC03LjU3NzYgNjUuMTc3Ni03Ljk4NzIgODcuOTYxNiAweiIvPjxwYXRoIGZpbGw9IiMwMDAwMDAiIGQ9Ik00ODAuNzY4IDU1OC43OTY4Yy01LjYzMiA1LjYzMi0yLjA0OCAyNS4xOTA0IDUuMTIgMzAuMDAzMiA0LjgxMjggMy41ODQgOC40NDggMTEuMjEyOCA5LjIxNiAyMS4xOTY4IDEuMjI4OCAxNS42MTYgMS42Mzg0IDE2LjAyNTYgMTcuMjAzMiAxNi4wMjU2IDE1LjYxNiAwIDE2LjAyNTYtMC40MDk2IDE2LjM4NC0xNS4yMDY0IDAtMTAuMDM1MiAzLjIyNTYtMTcuNjEyOCA4LjgwNjQtMjIuODM1MiA5LjYyNTYtOS4yMTYgMTEuNjIyNC0yMC43ODcyIDQuMDQ0OC0yNi43Nzc2LTUuNjMyLTQuNDAzMi01Ni44MzItNS45OTA0LTYwLjgyNTYtMi40MDY0ek0zMTEuODU5MiA0ODAuNDA5NmMtMTguNDMyIDkuMjE2LTI4LjAwNjQgNDQuOC0xNi4zODQgNjAuMDA2NCA3LjE2OCA5LjIxNiAyMC43ODcyIDE1LjU2NDggMzMuOTk2OCAxNS41NjQ4IDE3LjIwMzIgMCAzNi44MTI4LTIzLjE5MzYgMzYuODEyOC00My4xNjE2IDAtOC4wMzg0LTIuNDA2NC0xNy42MTI4LTUuMjIyNC0yMS4xOTY4YTQwLjk2IDQwLjk2IDAgMCAwLTQ5LjE1Mi0xMS4yNjR6IG0zNjQuMzkwNCAwLjQwOTZjLTEyLjggNy4xNjgtMTcuNTYxNiAxNS45NzQ0LTE3Ljk3MTIgMzIgMCAxOS45NjggMTkuNjA5NiA0My4xNjE2IDM2LjgxMjggNDMuMTYxNiAyMy4xOTM2IDAgMzguNzU4NC0xMy45Nzc2IDM5LjE2OC0zNS4xNzQ0IDAtMzIuNzY4LTMyLTU0Ljc4NC01OC4wMDk2LTM5Ljk4NzJ6Ii8+PC9zdmc+;" vertex="1" parent="GH5J3ZF4ZUbpaNKZtYxY-6">
          <mxGeometry width="28.08" height="37.04" as="geometry" />
        </mxCell>
        <mxCell id="GH5J3ZF4ZUbpaNKZtYxY-8" value="" style="shape=image;verticalLabelPosition=bottom;labelBackgroundColor=default;verticalAlign=top;aspect=fixed;imageAspect=0;editableCssRules=.*;image=data:image/svg+xml,PHN2ZyB4bWxuczp4bGluaz0iaHR0cDovL3d3dy53My5vcmcvMTk5OS94bGluayIgeG1sbnM9Imh0dHA6Ly93d3cudzMub3JnLzIwMDAvc3ZnIiBoZWlnaHQ9IjIwMCIgd2lkdGg9IjE3NS41MjY5MDUwNTk4MTQ0NSIgdmVyc2lvbj0iMS4xIiB2aWV3Qm94PSI2Mi42NTA5OTcxNjE4NjUyMzQgMCA4OTguNjk3NzUzOTA2MjUgMTAyNCIgY2xhc3M9Imljb24iPjxwYXRoIGZpbGw9IiMxMjk2REIiIGQ9Ik01MTEuNjIgMTAyNGEzMy41NzYgMzMuNTc2IDAgMCAxLTMzLjU0OS0zMy41NXYtOTguODQybC02OS4wMzkgNDIuNDk2YTMzLjk1NCAzMy45NTQgMCAwIDEtNDYuNTEtMTAuNzhsLTAuMzUxLTAuNTM4YTMzLjkyNyAzMy45MjcgMCAwIDEgMTEuMDc1LTQ2LjYybDEwMi4xMDQtNjIuODRhNDQuNTE4IDQ0LjUxOCAwIDAgMSAyLjY5NC0xLjQ4M1Y1NzEuNDQ2bC0xOTcuMTIgMTE5LjA1M2EzNC40MTIgMzQuNDEyIDAgMCAxIDAgNi4wMWwtMTAuMTMyIDExOS41MzhhMzQuMjIzIDM0LjIyMyAwIDAgMS0zMy44MTkgMzEuMDQ0aC0zLjI2YTM0LjA2MSAzNC4wNjEgMCAwIDEtMzAuOTM2LTM2LjY0OWw2LjQ5NC03Ni44LTk1LjQyIDU3LjU2YTM0LjE3IDM0LjE3IDAgMCAxLTE3LjY1IDQuOTA0IDMzLjM4OCAzMy4zODggMCAwIDEtMzMuNTUtMjkuNTM0di03LjU0NWEzMy4wOTEgMzMuMDkxIDAgMCAxIDE1Ljg5OS0yNC43MTFsODQuNjY4LTUxLjItNTMuODk0LTE5LjQwMmEzMy45MjcgMzMuOTI3IDAgMCAxLTIwLjM0Ni00My4zMzIgMzQuMDA4IDM0LjAwOCAwIDAgMSAzMS45ODctMjIuNTU1IDMzLjU3NiAzMy41NzYgMCAwIDEgMTEuMzk5IDEuOTY4bDEwNS45ODQgMzguMTAzIDIxMS4yOTQtMTI3LjUxNS0yMDQuOC0xMzguMTA1YTMyLjMzNyAzMi4zMzcgMCAwIDEtNC42ODkgMi40NTJsLTExMC41NjUgNDYuMTA3YTMzLjk1NCAzMy45NTQgMCAwIDEtNDQuMjc0LTE4LjEzNmwtMC4xOS0wLjQ1OC0wLjEzNC0wLjQwNGEzNC4wNjEgMzQuMDYxIDAgMCAxIDE4LjMyNC00My44MTZsNzQuNDAyLTMxLjA5OC04Ni45ODYtNTguNjlhMzMuMTE4IDMzLjExOCAwIDAgMS04Ljc4NS00Ni40NTggMzQuMjIzIDM0LjIyMyAwIDAgMSA0Ni44MzUtOC42MjNsODUuOTM1IDU3LjkzNyA0LjQyLTc4LjkwMmEzMy44NzMgMzMuODczIDAgMCAxIDMzLjg3Mi0zMS45NmgyLjI5YTMzLjkgMzMuOSAwIDAgMSAzMS45MzMgMzUuNzMybC02LjcxIDExOS41MTJMNDc4LjA3MSA0NDguN1YyMjIuMzQzbC05MS45MTctNzQuMTMyYTM0LjA2MSAzNC4wNjEgMCAwIDEtNS4zOS00Ny4yMTJsMC4yNy0wLjM3OCAwLjI5Ni0wLjM3N2EzMy42ODQgMzMuNjg0IDAgMCAxIDI2LjI0Ny0xMi41ODQgMzQuMDYxIDM0LjA2MSAwIDAgMSAyMS4yMDggNy40MWw0OS4yODYgMzkuNjY3VjMzLjQ0MkEzMy44NzMgMzMuODczIDAgMCAxIDUwOC4zNjEgMGg3LjAwNmEzMy44NzMgMzMuODczIDAgMCAxIDMwLjI4OCAzMy4zODh2OTYuNzE0bDQxLjIzLTM1Ljc4NmEzMy41NzYgMzMuNTc2IDAgMCAxIDIyLjA5Ny04LjIyIDMzLjk4IDMzLjk4IDAgMCAxIDI1LjY4IDExLjY3bDAuNDU5IDAuNTExIDAuMjQyIDAuNDA0YTMzLjQxNSAzMy40MTUgMCAwIDEgNy42OCAyNC4wMzcgMzMuOTI3IDMzLjkyNyAwIDAgMS0xMS41ODcgMjMuMTc1bC04NS44MjggNzQuNDAydjIzMi4xNTFsMTk3LjA5NC0xMTguOTcyIDAuNjczLTExNy4wNmEzNC4xMTUgMzQuMTE1IDAgMCAxIDM0LjAwOC0zMy43MzhoMC40M2EzNC4xMTUgMzQuMTE1IDAgMCAxIDMzLjc5MyAzNC4wMDhsLTAuNDMxIDc1LjQ1MiA5OC43MDgtNTkuNTUzYTM0LjAzNSAzNC4wMzUgMCAwIDEgNDYuMzc2IDEwLjk0IDMyLjcxNCAzMi43MTQgMCAwIDEgNC4xNSAyNS4xOTYgMzMuMTcyIDMzLjE3MiAwIDAgMS0xNS4yNzkgMjAuODU3bC0xMDEuNzI2IDYxLjM4NyA3NS40NTIgMzcuMTA2YTMzLjkgMzMuOSAwIDAgMSAxNS4zODcgNDUuMzUybC0wLjMyMyAwLjYyLTAuMjQyIDAuNDA0YTMzLjczOCAzMy43MzggMCAwIDEtMzAuMDc0IDE4LjI3IDMzLjM4OCAzMy4zODggMCAwIDEtMTQuOTI5LTMuNTAybC0xMDcuNTQ3LTUzLjA4N2EzMy43MTEgMzMuNzExIDAgMCAxLTYuMTctMy45MzRsLTIwMC44NCAxMjEuMjYzIDIxMy42OTMgMTQ0LjA2IDEuMDI0LTAuNDAzTDkwMS4yIDYxNS4yMDhhMzMuOSAzMy45IDAgMCAxIDQzLjQ5MyAxOS44ODhsMC4yMTYgMC41OTJhMzMuOTI3IDMzLjkyNyAwIDAgMS0xOS45NDEgNDMuMzg2TDg1Ny4xNCA3MDQuMzVsNzUuOTY1IDUxLjJhMzMuMzg4IDMzLjM4OCAwIDAgMSAxNC4xNDcgMjEuNzIgMzIuODc2IDMyLjg3NiAwIDAgMS01LjM5IDI0Ljg3MiAzNC4xNyAzNC4xNyAwIDAgMS00Ni44MDcgOC42MjNsLTgzLjg4Ny01Ni41ODktOC4yMiA4Ni4yMzJhMzMuNzM4IDMzLjczOCAwIDAgMS0zMy42MyAzMC42MTJoLTMuODUzYTMzLjkyNyAzMy45MjcgMCAwIDEtMzAuNDIzLTM2LjkxOGwxMS4zNzEtMTE5LjM3N2MwLjEzNS0xLjE4NiAwLjI5Ny0yLjM3MSAwLjU0LTMuNTNMNTQ1LjY1NCA1NzUuMzh2MjM3LjY1bDEwMC45NzIgNjQuMjk1YTMzLjk4IDMzLjk4IDAgMCAxIDEwLjQyOSA0Ni43NTRsLTAuMzc3IDAuNTY2YTM0LjAzNSAzNC4wMzUgMCAwIDEtNDYuNjQ2IDEwLjI0bC02NC4zNzgtNDAuOTg3djk2LjcxNEEzMy42NTcgMzMuNjU3IDAgMCAxIDUxMi4wOCAxMDI0eiIvPjwvc3ZnPg==;" vertex="1" parent="GH5J3ZF4ZUbpaNKZtYxY-6">
          <mxGeometry x="20" y="28.52000000000004" width="18" height="20.46" as="geometry" />
        </mxCell>
        <mxCell id="GH5J3ZF4ZUbpaNKZtYxY-9" value="" style="endArrow=none;html=1;rounded=0;" edge="1" parent="GH5J3ZF4ZUbpaNKZtYxY-11">
          <mxGeometry width="50" height="50" relative="1" as="geometry">
            <mxPoint x="38" y="48.980000000000075" as="sourcePoint" />
            <mxPoint x="48" y="28.980000000000075" as="targetPoint" />
          </mxGeometry>
        </mxCell>
        <mxCell id="GH5J3ZF4ZUbpaNKZtYxY-10" value="" style="shape=image;verticalLabelPosition=bottom;labelBackgroundColor=default;verticalAlign=top;aspect=fixed;imageAspect=0;editableCssRules=.*;image=data:image/svg+xml,PHN2ZyB4bWxuczp4bGluaz0iaHR0cDovL3d3dy53My5vcmcvMTk5OS94bGluayIgeG1sbnM9Imh0dHA6Ly93d3cudzMub3JnLzIwMDAvc3ZnIiBoZWlnaHQ9IjE4OS40NzcwODYwNjcxOTk3IiB3aWR0aD0iMTYxLjI5Nzg1Nzc2MTM4MzA2IiB2ZXJzaW9uPSIxLjEiIHZpZXdCb3g9IjEwNC44NDI0NTMwMDI5Mjk2OSA1My44NzcxODIwMDY4MzU5NCA4MjUuODQ1MDMxNzM4MjgxMiA5NzAuMTIyNjgwNjY0MDYyNSIgY2xhc3M9Imljb24iPjxwYXRoIGZpbGw9IiNmOTZkMDUiIGQ9Ik00MTkuODQxMzcgNzkuOTM4NzAxYy0zNi4xNTA2MjMgOTUuNzIyNzc2LTk0LjE5NTI4NSAxODEuNzcxNDQyLTE2OS4wNDIzNSAyNTEuNTI2ODdDNTYuODA3NjQ5IDUzMS41NjY5MDcgMzAuODQwMyA4NTMuODY3NTMxIDMyOS4yMTAyMyAxMDEyLjIxNzQ0M2MxOS44NTczODQgMTEuNzEwNzY1IDQ1LjgyNDczMyA3LjEyODI5MiA2MC4wODEzMTctMTEuMjAxNjAyYTI5NS42MjA0NDYgMjk1LjYyMDQ0NiAwIDAgMCA2Ni4xOTEyODItMjMzLjE5Njk3NmMtMi4wMzY2NTUtMjguNTEzMTY3IDEwLjY5MjQzOC0zNS42NDE0NTkgMzUuNjQxNDU5LTE2LjI5MzIzOWEyOTMuNTgzNzkxIDI5My41ODM3OTEgMCAwIDEgMTE3LjEwNzY1MiAyMjkuNjMyODMxYzAgMzEuMDU4OTg2IDEyLjIxOTkyOSA0Ny4zNTIyMjQgNDEuMjQyMjYgNDEuNzUxNDI0IDE4OS45MTgwNjEtMzYuNjU5Nzg3IDQyMi4wOTY3MS0zMDkuNTcxNTMyIDE3Mi4wOTczMzItNzA4Ljc1NTg3Ni0xNC43NjU3NDctMjAuMzY2NTQ4LTM3LjE2ODk1LTIwLjM2NjU0OC0zNi42NTk3ODcgNy42Mzc0NTYgMC41MDkxNjQgMzQuMTEzOTY4LTMuNTY0MTQ2IDY4LjczNzEtMTEuNzEwNzY1IDEwMS44MzI3NC01LjYwMDgwMSAyMi45MTIzNjctMjcuNDk0ODQgMjIuOTEyMzY3LTMyLjU4NjQ3NyAwYTU4Mi45OTI0NDEgNTgyLjk5MjQ0MSAwIDAgMC0yNTkuNjczNDg5LTM1My44Njg3NzRjLTM4LjE4NzI3OC0yNS45NjczNDktNTIuNDQzODYxLTE4LjMyOTg5My02MS4wOTk2NDQgMTAuMTgzMjc0eiIvPjwvc3ZnPg==;" vertex="1" parent="GH5J3ZF4ZUbpaNKZtYxY-11">
          <mxGeometry x="50" y="28.980000000000075" width="17.04" height="20" as="geometry" />
        </mxCell>
        <mxCell id="GH5J3ZF4ZUbpaNKZtYxY-19" value="大语言模型&lt;div&gt;增强器&lt;/div&gt;" style="text;html=1;align=center;verticalAlign=middle;whiteSpace=wrap;rounded=0;fontFamily=SimHei;" vertex="1" parent="GH5J3ZF4ZUbpaNKZtYxY-28">
          <mxGeometry x="75" y="20" width="90" height="30" as="geometry" />
        </mxCell>
        <mxCell id="GH5J3ZF4ZUbpaNKZtYxY-32" style="edgeStyle=orthogonalEdgeStyle;rounded=0;orthogonalLoop=1;jettySize=auto;html=1;exitX=0.5;exitY=1;exitDx=0;exitDy=0;entryX=0.25;entryY=0;entryDx=0;entryDy=0;" edge="1" parent="1" source="GH5J3ZF4ZUbpaNKZtYxY-30" target="GH5J3ZF4ZUbpaNKZtYxY-31">
          <mxGeometry relative="1" as="geometry" />
        </mxCell>
        <mxCell id="GH5J3ZF4ZUbpaNKZtYxY-30" value="&lt;font face=&quot;SimHei&quot;&gt;其他信息&lt;/font&gt;" style="rounded=1;whiteSpace=wrap;html=1;fillColor=#ffe6cc;strokeColor=#d79b00;" vertex="1" parent="1">
          <mxGeometry x="200" y="310" width="80" height="20" as="geometry" />
        </mxCell>
        <mxCell id="GH5J3ZF4ZUbpaNKZtYxY-34" style="edgeStyle=orthogonalEdgeStyle;rounded=0;orthogonalLoop=1;jettySize=auto;html=1;" edge="1" parent="1" source="GH5J3ZF4ZUbpaNKZtYxY-31">
          <mxGeometry relative="1" as="geometry">
            <mxPoint x="280" y="400" as="targetPoint" />
          </mxGeometry>
        </mxCell>
        <mxCell id="GH5J3ZF4ZUbpaNKZtYxY-31" value="&lt;font face=&quot;Times New Roman&quot;&gt;prompt&lt;/font&gt;" style="rounded=1;whiteSpace=wrap;html=1;fillColor=#e1d5e7;strokeColor=#9673a6;" vertex="1" parent="1">
          <mxGeometry x="200" y="350" width="160" height="20" as="geometry" />
        </mxCell>
        <mxCell id="GH5J3ZF4ZUbpaNKZtYxY-33" style="edgeStyle=orthogonalEdgeStyle;rounded=0;orthogonalLoop=1;jettySize=auto;html=1;exitX=0.75;exitY=1;exitDx=0;exitDy=0;entryX=0.75;entryY=0;entryDx=0;entryDy=0;" edge="1" parent="1" source="GH5J3ZF4ZUbpaNKZtYxY-1" target="GH5J3ZF4ZUbpaNKZtYxY-31">
          <mxGeometry relative="1" as="geometry" />
        </mxCell>
      </root>
    </mxGraphModel>
  </diagram>
</mxfile>
